<svg width="109" height="18" viewBox="0 0 109 18" fill="none" xmlns="http://www.w3.org/2000/svg">
<path d="M23 15.7255V2H28.6051C29.4653 2 30.2315 2.16993 30.9036 2.5098C31.5891 2.8366 32.12 3.30719 32.4964 3.92157C32.8862 4.52288 33.0811 5.24837 33.0811 6.09804V6.35294C33.0811 7.20261 32.8794 7.93464 32.4762 8.54902C32.0864 9.1634 31.5555 9.63399 30.8834 9.96078C30.2113 10.2876 29.4519 10.451 28.6051 10.451H25.1775V15.7255H23ZM25.1775 8.52941H28.3833C29.1495 8.52941 29.761 8.33333 30.218 7.94118C30.6751 7.54902 30.9036 7.01307 30.9036 6.33333V6.13725C30.9036 5.44444 30.6751 4.90196 30.218 4.5098C29.761 4.11765 29.1495 3.92157 28.3833 3.92157H25.1775V8.52941Z" fill="black"/>
<path d="M39.5908 16C38.5961 16 37.709 15.8039 36.9294 15.4118C36.1632 15.0065 35.5583 14.4314 35.1148 13.6863C34.6712 12.9412 34.4494 12.0588 34.4494 11.0392V10.7451C34.4494 9.72549 34.6712 8.84967 35.1148 8.11765C35.5583 7.37255 36.1632 6.79739 36.9294 6.39216C37.709 5.98693 38.5961 5.78431 39.5908 5.78431C40.5854 5.78431 41.4726 5.98693 42.2522 6.39216C43.0318 6.79739 43.6433 7.37255 44.0869 8.11765C44.5305 8.84967 44.7523 9.72549 44.7523 10.7451V11.0392C44.7523 12.0588 44.5305 12.9412 44.0869 13.6863C43.6433 14.4314 43.0318 15.0065 42.2522 15.4118C41.4726 15.8039 40.5854 16 39.5908 16ZM39.5908 14.1961C40.5048 14.1961 41.2441 13.915 41.8086 13.3529C42.3866 12.7778 42.6756 11.9869 42.6756 10.9804V10.8039C42.6756 9.79739 42.3933 9.01307 41.8288 8.45098C41.2642 7.87582 40.5182 7.58824 39.5908 7.58824C38.6902 7.58824 37.9509 7.87582 37.3729 8.45098C36.8084 9.01307 36.5261 9.79739 36.5261 10.8039V10.9804C36.5261 11.9869 36.8084 12.7778 37.3729 13.3529C37.9509 13.915 38.6902 14.1961 39.5908 14.1961Z" fill="black"/>
<path d="M51.4105 16C50.147 16 49.0986 15.7255 48.2652 15.1765C47.4318 14.6275 46.9211 13.7974 46.7329 12.6863L48.6684 12.2353C48.776 12.7712 48.9574 13.1961 49.2128 13.5098C49.4682 13.8235 49.7841 14.0458 50.1604 14.1765C50.5502 14.3072 50.9669 14.3725 51.4105 14.3725C52.0691 14.3725 52.5732 14.2484 52.9226 14C53.2856 13.7516 53.467 13.4314 53.467 13.0392C53.467 12.6471 53.299 12.3595 52.963 12.1765C52.6269 11.9935 52.1296 11.8431 51.471 11.7255L50.7855 11.6078C50.1134 11.4902 49.5018 11.3203 48.9507 11.098C48.3996 10.8758 47.9628 10.5686 47.6402 10.1765C47.3176 9.78431 47.1563 9.28104 47.1563 8.66667C47.1563 7.75163 47.5058 7.04575 48.2047 6.54902C48.9037 6.03922 49.8311 5.78431 50.9871 5.78431C52.1027 5.78431 53.0167 6.03268 53.7291 6.52941C54.455 7.01307 54.9254 7.6732 55.1405 8.5098L53.2049 9.03922C53.0839 8.45098 52.8286 8.03922 52.4388 7.80392C52.049 7.55556 51.5651 7.43137 50.9871 7.43137C50.4225 7.43137 49.979 7.53595 49.6564 7.7451C49.3338 7.94118 49.1725 8.22222 49.1725 8.58823C49.1725 8.98039 49.3271 9.26797 49.6362 9.45098C49.9588 9.63399 50.3889 9.77124 50.9266 9.86274L51.6323 9.98039C52.3447 10.098 52.9966 10.2614 53.588 10.4706C54.1794 10.6797 54.6432 10.9804 54.9792 11.3725C55.3287 11.7647 55.5034 12.2876 55.5034 12.9412C55.5034 13.9085 55.1338 14.6601 54.3945 15.1961C53.6552 15.732 52.6605 16 51.4105 16Z" fill="black"/>
<path d="M57.9307 15.7255V6.05882H60.0074V15.7255H57.9307ZM58.9792 4.7451C58.5759 4.7451 58.2332 4.62092 57.9509 4.37255C57.6821 4.11111 57.5477 3.77778 57.5477 3.37255C57.5477 2.96732 57.6821 2.64052 57.9509 2.39216C58.2332 2.13072 58.5759 2 58.9792 2C59.3959 2 59.7386 2.13072 60.0074 2.39216C60.2763 2.64052 60.4107 2.96732 60.4107 3.37255C60.4107 3.77778 60.2763 4.11111 60.0074 4.37255C59.7386 4.62092 59.3959 4.7451 58.9792 4.7451Z" fill="black"/>
<path d="M66.8194 15.7255C66.2145 15.7255 65.7306 15.549 65.3677 15.1961C65.0182 14.8431 64.8435 14.3725 64.8435 13.7843V7.76471H62.1015V6.05882H64.8435V2.86275H66.9202V6.05882H69.884V7.76471H66.9202V13.4314C66.9202 13.8235 67.1084 14.0196 67.4848 14.0196H69.5615V15.7255H66.8194Z" fill="black"/>
<path d="M72.3238 15.7255V6.05882H74.4005V15.7255H72.3238ZM73.3722 4.7451C72.969 4.7451 72.6263 4.62092 72.344 4.37255C72.0752 4.11111 71.9407 3.77778 71.9407 3.37255C71.9407 2.96732 72.0752 2.64052 72.344 2.39216C72.6263 2.13072 72.969 2 73.3722 2C73.7889 2 74.1317 2.13072 74.4005 2.39216C74.6693 2.64052 74.8038 2.96732 74.8038 3.37255C74.8038 3.77778 74.6693 4.11111 74.4005 4.37255C74.1317 4.62092 73.7889 4.7451 73.3722 4.7451Z" fill="black"/>
<path d="M79.781 15.7255L76.4341 6.05882H78.6317L81.273 14.2353H81.5956L84.2368 6.05882H86.4345L83.0876 15.7255H79.781Z" fill="black"/>
<path d="M92.2602 15.902C91.5075 15.902 90.8354 15.7386 90.244 15.4118C89.6526 15.085 89.1889 14.6209 88.8528 14.0196C88.5168 13.4183 88.3488 12.6993 88.3488 11.8627V6.05882H90.4255V11.7255C90.4255 12.5621 90.6405 13.183 91.0707 13.5882C91.5008 13.9804 92.0989 14.1765 92.8651 14.1765C93.7119 14.1765 94.3907 13.902 94.9015 13.3529C95.4257 12.7908 95.6878 11.9869 95.6878 10.9412V6.05882H97.7645V15.7255H95.7281V14.2745H95.4055C95.2173 14.6667 94.8813 15.0392 94.3974 15.3922C93.9135 15.732 93.2011 15.902 92.2602 15.902Z" fill="black"/>
<path d="M104.907 16C103.644 16 102.595 15.7255 101.762 15.1765C100.928 14.6275 100.418 13.7974 100.229 12.6863L102.165 12.2353C102.273 12.7712 102.454 13.1961 102.709 13.5098C102.965 13.8235 103.281 14.0458 103.657 14.1765C104.047 14.3072 104.464 14.3725 104.907 14.3725C105.566 14.3725 106.07 14.2484 106.419 14C106.782 13.7516 106.964 13.4314 106.964 13.0392C106.964 12.6471 106.796 12.3595 106.46 12.1765C106.124 11.9935 105.626 11.8431 104.968 11.7255L104.282 11.6078C103.61 11.4902 102.998 11.3203 102.447 11.098C101.896 10.8758 101.459 10.5686 101.137 10.1765C100.814 9.78431 100.653 9.28104 100.653 8.66667C100.653 7.75163 101.002 7.04575 101.701 6.54902C102.4 6.03922 103.328 5.78431 104.484 5.78431C105.599 5.78431 106.513 6.03268 107.226 6.52941C107.952 7.01307 108.422 7.6732 108.637 8.5098L106.702 9.03922C106.581 8.45098 106.325 8.03922 105.935 7.80392C105.546 7.55556 105.062 7.43137 104.484 7.43137C103.919 7.43137 103.476 7.53595 103.153 7.7451C102.83 7.94118 102.669 8.22222 102.669 8.58823C102.669 8.98039 102.824 9.26797 103.133 9.45098C103.455 9.63399 103.886 9.77124 104.423 9.86274L105.129 9.98039C105.841 10.098 106.493 10.2614 107.085 10.4706C107.676 10.6797 108.14 10.9804 108.476 11.3725C108.825 11.7647 109 12.2876 109 12.9412C109 13.9085 108.63 14.6601 107.891 15.1961C107.152 15.732 106.157 16 104.907 16Z" fill="black"/>
<path d="M9.01273 2.64781L18 0L15.3776 9.01273L18 18L9.01273 15.3776L0 18L2.64781 9.01273L0 0L9.01273 2.64781Z" fill="black"/>
</svg>
